<?xml version="1.0" encoding="utf-8"?>
<!-- Generator: Adobe Illustrator 16.0.0, SVG Export Plug-In . SVG Version: 6.00 Build 0)  -->
<!DOCTYPE svg PUBLIC "-//W3C//DTD SVG 1.1//EN" "http://www.w3.org/Graphics/SVG/1.1/DTD/svg11.dtd">
<svg version="1.1" id="图层_1" xmlns="http://www.w3.org/2000/svg" xmlns:xlink="http://www.w3.org/1999/xlink" x="0px" y="0px"
	 width="268.545px" height="59.938px" viewBox="0 0 268.545 59.938" enable-background="new 0 0 268.545 59.938"
	 xml:space="preserve">
<g>
	<defs>
		<rect id="SVGID_1_" y="0" width="268.545" height="59.938"/>
	</defs>
	<use xlink:href="#SVGID_1_"  overflow="visible" fill="#FFFFFF"/>
	<clipPath id="SVGID_2_">
		<use xlink:href="#SVGID_1_"  overflow="visible"/>
	</clipPath>
	<path clip-path="url(#SVGID_2_)" fill="#FFFFFF" d="M51.107,25.854H48.45l-9.172,25.2h2.657c6.93,0,14.664-5.67,17.186-12.6
		C61.644,31.523,58.037,25.854,51.107,25.854"/>
	<polygon clip-path="url(#SVGID_2_)" fill="#FFFFFF" points="42.826,17.012 27.217,59.896 0,59.896 21.8,0 73.117,0 66.926,17.012 	
		"/>
	<path clip-path="url(#SVGID_2_)" fill="#FFFFFF" d="M158.152,54.291c3.476,0,7.082-2.1,8.013-4.664l0.116-0.317
		c0.931-2.564-1.15-4.664-4.627-4.664h-8.385c-3.423,0-6.975,2.066-7.892,4.592l-2.11,5.814c-0.977,2.687,1.205,4.886,4.846,4.886
		h13.663l0.922-2.538H149.81c-1.135,0-1.815-0.685-1.511-1.522l0.575-1.586H158.152z M154.125,47.247l5.149-0.009
		c1.583,0,2.531,0.956,2.107,2.124l-0.073,0.202c-0.424,1.168-2.067,2.124-3.65,2.124h-7.839l0.89-2.451
		C151.106,48.145,152.644,47.249,154.125,47.247"/>
	<path clip-path="url(#SVGID_2_)" fill="#FFFFFF" d="M185.866,54.291c3.476,0,7.082-2.1,8.013-4.664l0.115-0.317
		c0.932-2.564-1.15-4.664-4.626-4.664h-8.385c-3.423,0-6.975,2.066-7.892,4.592l-2.11,5.814c-0.977,2.687,1.205,4.886,4.847,4.886
		h13.662l0.922-2.538h-12.889c-1.135,0-1.815-0.685-1.512-1.522l0.576-1.586H185.866z M181.839,47.247l5.149-0.009
		c1.583,0,2.531,0.956,2.106,2.124l-0.072,0.202c-0.424,1.168-2.067,2.124-3.65,2.124h-7.839l0.89-2.451
		C178.82,48.145,180.357,47.249,181.839,47.247"/>
	<path clip-path="url(#SVGID_2_)" fill="#FFFFFF" d="M244.766,44.646h-4.92c-5.143,0-10.479,3.104-11.856,6.899l-0.542,1.491
		c-1.378,3.795,1.703,6.899,6.846,6.899h4.92c5.144,0,10.479-3.104,11.857-6.899l0.541-1.491
		C252.989,47.751,249.909,44.646,244.766,44.646 M246.434,52.365c-1.008,2.773-4.907,5.044-8.668,5.044h-0.189
		c-3.76,0-6.012-2.271-5.005-5.044l0.053-0.147c1.008-2.773,4.908-5.044,8.668-5.044h0.191c3.76,0,6.012,2.271,5.004,5.044
		L246.434,52.365z"/>
	<path clip-path="url(#SVGID_2_)" fill="#FFFFFF" d="M220.034,40.315l-5.586,15.383c-0.373,1.026-1.349,1.711-2.441,1.711h-1.867
		c-3.761,0-6.013-2.271-5.005-5.044l0.054-0.147c1.007-2.773,4.908-5.044,8.668-5.044h0.976l0.918-2.527h-3.341
		c-5.143,0-10.479,3.104-11.856,6.899l-0.541,1.491c-1.379,3.795,1.702,6.899,6.845,6.899h6.04h0.013h3.342
		c1.193,0,2.26-0.745,2.667-1.867l6.446-17.754H220.034z"/>
	<path clip-path="url(#SVGID_2_)" fill="#FFFFFF" d="M118.396,47.216l0.933-2.569h-15.393h-3.512c-1.092,0-2.066,0.682-2.438,1.708
		l-0.313,0.861l-4.62,12.722h5.331l2.066-5.689h12.605l0.93-2.56h-12.606l1.624-4.473H118.396z"/>
	<path clip-path="url(#SVGID_2_)" fill="#FFFFFF" d="M123.928,49.944l-3.566,9.993h5.329l3.812-10.641
		c0.305-0.838,1.482-1.523,2.617-1.523h6.965l0.922-2.537h-7.993C128.491,45.236,124.87,47.344,123.928,49.944"/>
	<path clip-path="url(#SVGID_2_)" fill="#FFFFFF" d="M193.19,15.765l-5.408,15.222c-0.386,1.099,0.191,1.726,1.734,1.881
		l1.623,0.074l6.755-18.945l-2.024-0.047C194.546,13.918,193.652,14.524,193.19,15.765"/>
	<path clip-path="url(#SVGID_2_)" fill="#FFFFFF" d="M181.217,13.648l-2.025-0.047l-6.679,18.947l1.648,0.001
		c1.626-0.081,2.633-0.672,3.018-1.77l5.409-15.222C182.997,14.316,182.54,13.679,181.217,13.648"/>
	<path clip-path="url(#SVGID_2_)" fill="#FFFFFF" d="M199.52,14.235l0.408,6.685l5.783,0.072l-0.513-6.254
		c-0.595-1.006,0.026-1.534,1.865-1.582c3.144-0.287,4.242-1.964,3.298-5.032l-1.113-5.247c-0.189-0.527-0.626-0.792-1.31-0.792
		l-5.613-0.071l2.408,7.836l-2.118,0.071C200.292,10.64,199.259,12.077,199.52,14.235"/>
	<path clip-path="url(#SVGID_2_)" fill="#FFFFFF" d="M195.473,2.937h2.52c2.106,0,3.041,0.417,3.636-1.385l0.384-1.12h-18.663
		l-0.835,2.434h5.049c2.221,0,0.607,2.958,0.215,4.109l-0.589,1.724h-11.565l-0.825,2.457h5.354h6.21l-2.193,6.385l-0.515,1.51
		l-5.081,14.881l6.333-0.035l7.776-22.741h6.663l0.826-2.457h-6.662L195.473,2.937z"/>
	<polygon clip-path="url(#SVGID_2_)" fill="#FFFFFF" points="214.061,22.43 221.719,0 214.714,0 207.056,22.43 196.679,22.43 
		195.877,24.87 202.454,24.87 206.254,24.87 204.185,30.84 203.521,32.782 203.129,33.933 210.134,33.933 213.259,24.87 
		216.981,24.87 217.784,22.43 	"/>
	<path clip-path="url(#SVGID_2_)" fill="#FFFFFF" d="M132.277,8.484l-1.133,7.117c2.856,0.982,3.063,4.217,0.619,9.705l-3.676,8.302
		h3.288l3.208-0.034l3.382-7.549C141.556,17.206,139.66,11.36,132.277,8.484"/>
	<path clip-path="url(#SVGID_2_)" fill="#FFFFFF" d="M136.818,6.578c0.996,0,1.922-0.299,2.776-0.898
		c0.852-0.599,1.353-1.342,1.499-2.229c0.139-0.839-0.121-1.557-0.775-2.156c-0.656-0.599-1.482-0.899-2.479-0.899
		c-1.024,0-1.965,0.3-2.817,0.899c-0.854,0.599-1.349,1.317-1.488,2.156c-0.146,0.887,0.108,1.63,0.764,2.229
		C134.952,6.279,135.795,6.578,136.818,6.578"/>
	<path clip-path="url(#SVGID_2_)" fill="#FFFFFF" d="M153.101,3.962h22.506l0.806-2.416h-9.053L167.888,0h-6.961l-0.528,1.546
		h-7.816c-3.559,0-5.814,1.522-6.768,4.566l-9.498,27.819h2.86c2.42,0,4.028-1.127,4.826-3.378L153.101,3.962z"/>
	<path clip-path="url(#SVGID_2_)" fill="#FFFFFF" d="M156.554,17.101h9.354c2.447,0,4.076-1.185,4.887-3.558l0.813-2.355h1.665
		l0.856-2.47h-1.666l0.798-2.399h-6.063l-0.799,2.399h-5.894l0.798-2.399h-6.107l-0.797,2.399h-1.665l-0.855,2.47h1.665
		l-0.813,2.355C151.912,15.94,153.186,17.125,156.554,17.101 M159.649,11.188h5.895l-1.13,3.397l-5.907,0.036L159.649,11.188z"/>
	<path clip-path="url(#SVGID_2_)" fill="#FFFFFF" d="M168.041,33.607c-0.15-0.017-4.067-2.108-7.232-4.535
		c0.083-0.046,0.173-0.092,0.252-0.137c4.445-2.534,7.073-5.392,7.073-5.392c1.814-2.395,1.597-3.845-0.649-4.348h-10.72h-7.219
		l-1.482,4.096c0,0,1.389,2.614,4.517,5.499c-3.423,1.622-7.147,3.227-10.105,4.817h7.556c0,0,2.813-0.99,5.819-2.233
		c1.177,0.795,2.49,1.558,3.965,2.233H168.041z M153.803,23.276l7.639-0.02c-0.861,1.037-2.321,2.067-4.099,3.089
		C155.919,25.19,154.657,24.111,153.803,23.276"/>
	<path clip-path="url(#SVGID_2_)" fill="#FFFFFF" d="M267.758,5.912l0.788-2.424h-8.584L261.139,0h-7.004l-1.177,3.488h-8.541
		l-0.788,2.424h0.416h5.349h2.777l-1.632,4.62l-0.493,1.447l-0.159,0.465h-0.242h-7.218l-1.832,5.119c0,0,1.31,4.455,4.212,9.105
		c-5.972,3.75-11.822,7.137-11.822,7.137h7.729c0,0,3.077-1.63,6.555-3.633c1.048,1.271,2.4,2.709,3.686,3.633h7.227
		c0,0-2.832-3.269-5.548-6.876c1.139-0.736,2.155-1.438,2.921-2.047c6.135-4.879,7.347-7.005,7.347-7.005
		c2.02-2.993,1.925-4.804-0.278-5.433h-5.732l2.284-6.532H267.758z M250.187,23.503c-1.456-2.177-2.673-4.316-3.148-5.958
		l9.196-0.027C255.408,19.263,253.072,21.381,250.187,23.503"/>
	<path clip-path="url(#SVGID_2_)" fill="#FFFFFF" d="M240.954,0h-6.576l-1.189,3.487h-5.3l-0.854,2.425h0.184h2.299h2.817
		l-1.822,5.411l-0.525,1.538l-0.923,2.703l-5.809,1.338l-0.821,2.424l5.796-1.302c-1.609,4.961-3.639,10.642-3.982,10.894
		c-0.342,0.251-0.929,0.389-1.763,0.413h-5.279l-1.57,4.601h9.507c1.252,0,2.425-0.395,3.522-1.187
		c0.956-0.718,1.588-1.485,2.308-3.496l4.436-12.986l3.517-0.791l0.82-2.424l-3.504,0.755l2.671-7.891h3.245l0.853-2.425h-3.245
		L240.954,0z"/>
	<path clip-path="url(#SVGID_2_)" fill="#FFFFFF" d="M102.883,36.85l10.956-31.126c0-3.416-1.423-5.126-4.27-5.126H84.756v2.065
		c0,2.351,1.906,4.257,4.257,4.257h16.584L95.475,35.874c0.2,2.962,1.652,4.44,4.358,4.44h162.083c2.2,0,2.631-2.435,2.631-2.435
		l-160.596-0.004C103.238,37.876,102.883,37.532,102.883,36.85"/>
	<path clip-path="url(#SVGID_2_)" fill="#FFFFFF" d="M126.627,7.851l-1.456,8.721c0,0-8.434,1.963-10.814,6.775
		c-2.38,4.813-0.434,7.9,4.178,10.208c0,0-13.18-3.559-6.498-16.374C115.257,11.007,126.627,7.851,126.627,7.851"/>
	<path clip-path="url(#SVGID_2_)" fill="#FFFFFF" d="M124.75,19.169l-0.492,3.906c0,0-5.696,1.224-6.965,4.08
		c-1.27,2.856,0.52,5.088,3.728,6.453c0,0-9.542-2.826-5.049-9.724C118.417,20.129,124.75,19.169,124.75,19.169"/>
</g>
</svg>
